<?xml version="1.0" standalone="no"?>
<!DOCTYPE svg PUBLIC "-//W3C//DTD SVG 20010904//EN"
 "http://www.w3.org/TR/2001/REC-SVG-20010904/DTD/svg10.dtd">
<svg version="1.0" xmlns="http://www.w3.org/2000/svg"
 width="260.000000pt" height="260.000000pt" viewBox="0 0 260.000000 260.000000"
 preserveAspectRatio="xMidYMid meet">
<metadata>
Created by potrace 1.11, written by Peter Selinger 2001-2013
</metadata>
<g transform="translate(0.000000,260.000000) scale(0.100000,-0.100000)"
fill="#000000" stroke="none">
<path d="M522 1584 c-37 -25 -28 -59 28 -111 28 -25 50 -53 50 -62 0 -42 -59
-56 -83 -20 -10 14 -17 17 -22 9 -12 -19 26 -50 62 -50 38 0 73 29 73 61 0 13
-22 43 -55 74 -58 56 -62 64 -43 83 16 16 43 15 58 -3 7 -8 17 -12 23 -8 13 8
-29 43 -52 43 -9 0 -27 -7 -39 -16z"/>
<path d="M1800 1476 c0 -104 3 -126 15 -126 9 0 12 6 8 17 -6 16 -5 16 17 0
94 -65 202 54 125 138 -22 23 -32 26 -68 23 -23 -3 -50 -8 -60 -13 -17 -7 -18
-3 -16 35 2 28 -1 45 -9 48 -9 3 -12 -27 -12 -122z m149 8 c27 -34 27 -64 1
-92 -30 -32 -82 -30 -109 4 -12 15 -21 34 -21 44 0 34 39 70 75 70 24 0 39 -7
54 -26z"/>
<path d="M103 1477 c-29 -63 -53 -117 -53 -120 0 -20 22 -2 40 33 20 39 22 40
74 40 52 0 53 -1 71 -40 10 -22 24 -40 31 -40 9 0 -6 42 -41 116 -30 64 -55
118 -55 120 0 2 -3 4 -7 4 -5 0 -32 -51 -60 -113z m91 -4 c7 -21 4 -23 -33
-23 -23 0 -41 2 -41 5 0 3 10 24 21 47 l21 42 13 -25 c7 -13 16 -34 19 -46z"/>
<path d="M878 1470 l3 -120 55 0 c30 0 54 5 54 10 0 6 -20 10 -45 10 l-45 0 0
110 c0 81 -3 110 -12 110 -10 0 -12 -29 -10 -120z"/>
<path d="M1046 1499 c-33 -39 -33 -79 0 -118 21 -26 33 -31 68 -31 23 0 48 6
55 13 11 10 14 10 18 0 13 -36 23 -3 23 77 0 53 -4 90 -10 90 -5 0 -10 -7 -10
-16 0 -14 -2 -14 -22 0 -12 9 -39 16 -59 16 -29 0 -43 -7 -63 -31z m124 -11
c44 -47 11 -118 -54 -118 -37 0 -76 36 -76 70 0 10 9 29 21 44 27 34 79 36
109 4z"/>
<path d="M1260 1469 c0 -91 19 -119 83 -119 59 0 77 25 77 110 0 40 -4 70 -10
70 -6 0 -10 -28 -10 -64 0 -73 -14 -96 -60 -96 -41 0 -60 32 -60 102 0 32 -4
58 -10 58 -6 0 -10 -27 -10 -61z"/>
<path d="M1470 1440 c0 -73 3 -90 15 -90 12 0 15 14 15 64 0 71 14 96 55 96
33 0 45 -27 45 -99 0 -34 4 -61 10 -61 6 0 10 26 10 58 0 74 19 104 63 100
l32 -3 3 -77 c2 -63 6 -78 19 -78 13 0 15 11 11 75 -3 41 -11 81 -18 90 -17
20 -69 19 -92 -2 -17 -15 -19 -15 -36 0 -20 19 -77 23 -87 7 -3 -5 -11 -10
-16 -10 -6 0 -7 5 -4 10 3 6 -1 10 -9 10 -13 0 -16 -15 -16 -90z"/>
<path d="M2055 1504 c-34 -37 -34 -96 0 -129 33 -33 101 -35 135 -3 15 14 19
23 11 26 -7 2 -20 -3 -30 -12 -27 -24 -87 -21 -105 6 -30 42 -22 48 68 48 l85
0 -11 30 c-22 64 -108 83 -153 34z m123 -21 l14 -23 -72 0 c-68 0 -72 1 -59
18 23 28 32 32 68 30 22 -2 39 -11 49 -25z"/>
<path d="M2250 1440 c0 -53 4 -90 10 -90 6 0 10 22 10 49 0 66 14 99 47 113
27 11 27 12 5 16 -13 2 -30 -2 -38 -8 -10 -9 -14 -9 -14 -1 0 6 -4 11 -10 11
-6 0 -10 -37 -10 -90z"/>
<path d="M2397 1519 c-31 -18 -48 -72 -36 -108 19 -53 91 -77 137 -45 21 14
22 14 22 -10 0 -29 -33 -56 -69 -56 -13 0 -39 9 -57 21 -40 24 -46 10 -8 -20
38 -30 98 -28 129 4 23 22 25 31 25 125 0 60 -4 100 -10 100 -5 0 -10 -7 -10
-17 0 -15 -1 -15 -18 0 -21 19 -78 22 -105 6z m105 -26 c24 -22 24 -77 -2
-103 -11 -11 -33 -20 -50 -20 -17 0 -39 9 -50 20 -44 44 -11 120 52 120 17 0
40 -7 50 -17z"/>
<path d="M326 1375 c-3 -9 1 -18 10 -22 19 -7 28 2 21 22 -8 19 -23 19 -31 0z"/>
<path d="M690 1375 c-10 -12 -9 -16 5 -21 23 -9 40 10 22 25 -11 9 -17 8 -27
-4z"/>
<path d="M10 1130 l0 -130 1295 0 1296 0 -3 128 -3 127 -1292 3 -1293 2 0
-130z m460 55 c8 -9 9 -15 2 -15 -6 0 -14 5 -17 10 -10 16 -25 12 -25 -6 0 -9
11 -25 25 -36 28 -22 32 -50 10 -68 -20 -16 -70 3 -59 22 6 9 9 9 12 0 2 -7
12 -12 23 -12 28 0 24 34 -6 54 -24 16 -33 45 -18 59 11 12 40 8 53 -8z m260
-5 c29 -29 26 -74 -6 -99 -15 -12 -34 -21 -44 -21 -10 0 -29 9 -44 21 -50 40
-21 119 44 119 17 0 39 -9 50 -20z m170 -39 c0 -57 1 -60 28 -64 22 -3 20 -4
-10 -6 l-38 -1 0 65 c0 37 4 65 10 65 6 0 10 -26 10 -59z m190 -6 c0 -37 -4
-65 -10 -65 -6 0 -10 28 -10 65 0 37 4 65 10 65 6 0 10 -28 10 -65z m250 50
c15 -18 9 -19 -24 -4 -51 24 -103 -50 -64 -89 15 -15 53 -16 79 -2 12 7 19 7
19 1 0 -14 -34 -31 -60 -31 -29 0 -70 44 -70 75 0 14 9 34 20 45 24 24 82 27
100 5z m160 -50 c0 -37 -4 -65 -10 -65 -6 0 -10 28 -10 65 0 37 4 65 10 65 6
0 10 -28 10 -65z m190 55 c0 -5 -7 -10 -15 -10 -11 0 -15 -14 -17 -57 l-2 -58
-3 58 c-3 41 -8 57 -18 57 -8 0 -15 5 -15 10 0 6 16 10 35 10 19 0 35 -4 35
-10z m242 -7 c25 -23 24 -77 -4 -103 -61 -57 -150 27 -98 93 25 32 73 37 102
10z m226 5 c19 -19 14 -49 -8 -55 -25 -7 -25 -11 2 -40 12 -13 16 -23 10 -23
-6 0 -22 14 -34 31 l-23 31 -6 -34 c-5 -24 -7 -15 -8 35 l-1 67 28 0 c15 0 33
-5 40 -12z"/>
<path d="M652 1174 c-25 -18 -30 -65 -8 -83 41 -34 108 17 84 63 -20 39 -41
45 -76 20z"/>
<path d="M1852 1174 c-41 -28 -22 -94 28 -94 55 0 78 52 40 90 -24 24 -38 25
-68 4z"/>
<path d="M2100 1160 c0 -23 31 -27 49 -7 14 17 4 27 -26 27 -16 0 -23 -6 -23
-20z"/>
</g>
</svg>
